<svg width="25" height="25" viewBox="0 0 25 25" fill="none" xmlns="http://www.w3.org/2000/svg">
<path d="M16.9425 6.54581V18.0458C16.9425 20.2558 15.1525 22.0458 12.9425 22.0458C10.7325 22.0458 8.9425 20.2558 8.9425 18.0458V5.54581C8.9425 4.16581 10.0625 3.04581 11.4425 3.04581C12.8225 3.04581 13.9425 4.16581 13.9425 5.54581V16.0458C13.9425 16.5958 13.4925 17.0458 12.9425 17.0458C12.3925 17.0458 11.9425 16.5958 11.9425 16.0458V6.54581H10.4425V16.0458C10.4425 17.4258 11.5625 18.5458 12.9425 18.5458C14.3225 18.5458 15.4425 17.4258 15.4425 16.0458V5.54581C15.4425 3.33581 13.6525 1.54581 11.4425 1.54581C9.2325 1.54581 7.4425 3.33581 7.4425 5.54581V18.0458C7.4425 21.0858 9.9025 23.5458 12.9425 23.5458C15.9825 23.5458 18.4425 21.0858 18.4425 18.0458V6.54581H16.9425Z" fill="#211B12"/>
</svg>
